<?xml version="1.0" encoding="UTF-8"?> <svg xmlns="http://www.w3.org/2000/svg" width="438" height="261" viewBox="0 0 438 261" fill="none"> <path d="M83.6702 98.8969C110.876 98.8969 132.93 76.8425 132.93 49.637C132.93 22.4314 110.876 0.376953 83.6702 0.376953C56.4646 0.376953 34.4102 22.4314 34.4102 49.637C34.4102 76.8425 56.4646 98.8969 83.6702 98.8969Z" fill="url(#paint0_linear)"/> <path fill-rule="evenodd" clip-rule="evenodd" d="M75.1699 145.415V53.5752H92.1699V145.415H75.1699Z" fill="white"/> <path d="M0.910156 53.5752V145.464H17.9102V105.463H56.9102V91.4633H17.9102V67.501H56.9102V53.5752H0.910156Z" fill="white"/> <path fill-rule="evenodd" clip-rule="evenodd" d="M248.631 121.95H214.623V107.95H248.631V121.95Z" fill="white"/> <path fill-rule="evenodd" clip-rule="evenodd" d="M379.36 53.5752L341.582 145.464H358.881L373.377 110.205L388.571 73.2477L420.29 145.464H437.765L397.406 53.5752H379.36Z" fill="white"/> <path d="M368.444 122.205H410.074L404.804 110.205H373.377L368.444 122.205Z" fill="white"/> <path fill-rule="evenodd" clip-rule="evenodd" d="M281.396 53.6756V106.494V145.445H264.396V53.6756H281.396Z" fill="white"/> <path d="M337.525 142.37C336.168 139.942 334.291 136.589 332.212 132.894C330.759 130.31 329.251 127.464 327.753 124.636C324.976 119.395 322.231 114.213 319.924 110.872C317.411 107.233 314.493 104.763 311.529 102.691C307.221 105.084 302.36 106.494 297.471 106.494H288.339C292.725 106.642 294.687 107.936 296.501 109.261C298.805 110.943 301.505 113.538 305.154 119.751C307.376 123.535 309.475 127.291 311.961 131.742C313.021 133.638 314.151 135.661 315.391 137.865C317.268 141.36 318.951 143.737 320.376 145.494L339.23 145.421C338.851 144.741 338.204 143.584 337.525 142.37Z" fill="white"/> <path d="M264.396 53.6756H281.396V68.5524H297.471C303.822 68.5524 308.094 71.9904 308.094 80.0347C308.094 86.5866 303.822 91.517 297.471 91.517H281.396V106.494H288.339H297.471C302.36 106.494 307.221 105.084 311.529 102.691C320.116 97.9206 326.5 89.2416 326.5 80.0347C326.5 62.4191 312.106 53.5752 297.471 53.5752H264.396V53.6756Z" fill="white"/> <path d="M182.064 53.5752V116.887L128.928 55.7603L127.029 53.5755H111.928V145.416H128.928V81.6726L182.064 142.799L184.339 145.416H199.064V136.443V53.5752H182.064Z" fill="white"/> <path d="M12.8018 202.143L12.9058 202.253V179.71H16.2847V202.143H24.7974V179.71H28.2817V205.461H0.910156V179.71H4.3771V202.143H12.8018Z" fill="white"/> <path d="M37.5086 179.71H40.9755V190.18C41.6342 190.18 42.2178 190.124 42.7263 190.014C43.2464 189.891 43.7144 189.664 44.1304 189.332C44.558 189 44.9509 188.539 45.3092 187.949C45.6674 187.347 46.0257 186.567 46.3839 185.608C46.8115 184.465 47.2507 183.519 47.7014 182.77C48.1636 182.008 48.6663 181.399 49.2095 180.945C49.7642 180.49 50.3767 180.171 51.047 179.986C51.7172 179.802 52.48 179.71 53.3351 179.71H53.6472V183.028C52.8614 183.028 52.4453 183.108 51.9484 183.267C51.4514 183.415 51.0354 183.661 50.7003 184.005C50.3651 184.336 50.0762 184.773 49.8335 185.313C49.6024 185.842 49.3597 186.481 49.1055 187.23C48.9552 187.685 48.7588 188.146 48.5161 188.613C48.2734 189.08 48.0018 189.516 47.7014 189.922C47.4125 190.327 47.1004 190.69 46.7653 191.009C46.4417 191.329 46.1124 191.568 45.7772 191.728C46.3782 192.023 46.8924 192.324 47.32 192.631C47.7592 192.938 48.1636 193.313 48.5334 193.756C48.9148 194.186 49.2904 194.708 49.6602 195.323C50.0416 195.937 50.4749 196.699 50.9603 197.608L55.2246 205.461H51.2723L47.5107 198.511C46.9213 197.418 46.3897 196.527 45.9159 195.839C45.4421 195.15 44.9625 194.61 44.4771 194.217C44.0033 193.823 43.489 193.553 42.9343 193.405C42.3796 193.258 41.7267 193.184 40.9755 193.184V205.461H37.5086V179.71Z" fill="white"/> <path d="M61.4526 192.594C61.4526 190.813 61.7589 189.123 62.3714 187.525C62.9954 185.928 63.8737 184.527 65.0063 183.323C66.1388 182.106 67.5025 181.148 69.0972 180.447C70.7036 179.734 72.4891 179.378 74.4537 179.378C76.4529 179.378 78.2558 179.734 79.8621 180.447C81.4684 181.148 82.8321 182.1 83.9531 183.304C85.0856 184.508 85.9524 185.909 86.5533 187.507C87.1658 189.104 87.472 190.8 87.472 192.594C87.472 194.327 87.1716 195.992 86.5706 197.59C85.9812 199.175 85.1261 200.576 84.0051 201.792C82.8841 203.009 81.5089 203.98 79.8794 204.705C78.2615 205.43 76.4298 205.792 74.3843 205.792C73.0669 205.792 71.8304 205.633 70.6747 205.313C69.5191 204.981 68.4616 204.521 67.5025 203.931C66.5548 203.341 65.7054 202.64 64.9543 201.829C64.2031 201.006 63.5675 200.109 63.0474 199.138C62.5274 198.155 62.1287 197.111 61.8513 196.005C61.5855 194.899 61.4526 193.762 61.4526 192.594ZM65.0409 192.594C65.0409 193.995 65.2778 195.298 65.7516 196.502C66.2255 197.694 66.8784 198.733 67.7105 199.617C68.5541 200.49 69.5479 201.172 70.692 201.663C71.8477 202.155 73.1016 202.401 74.4537 202.401C75.8058 202.401 77.0597 202.155 78.2153 201.663C79.371 201.172 80.3648 200.49 81.1969 199.617C82.0405 198.733 82.6992 197.694 83.173 196.502C83.6468 195.298 83.8837 193.995 83.8837 192.594C83.8837 191.169 83.6468 189.86 83.173 188.668C82.6992 187.464 82.0405 186.425 81.1969 185.553C80.3648 184.68 79.371 183.998 78.2153 183.507C77.0597 183.015 75.8058 182.77 74.4537 182.77C73.1016 182.77 71.8477 183.015 70.692 183.507C69.5479 183.998 68.5541 184.68 67.7105 185.553C66.8784 186.425 66.2255 187.464 65.7516 188.668C65.2778 189.86 65.0409 191.169 65.0409 192.594Z" fill="white"/> <path d="M105.834 179.562L116.669 205.461H113.115L104.569 184.311L96.5429 205.461H92.9893L103.39 179.562H105.834Z" fill="white"/> <path d="M133.419 179.562L144.253 205.461H140.699L137.475 197.866H127.178L124.127 205.461H120.574L130.975 179.562H133.419ZM132.153 184.735L128.53 194.548H136.054L132.153 184.735Z" fill="white"/> <path d="M164.614 205.461V179.71H180.041V183.028H168.08V190.014H172.986C174.269 190.014 175.442 190.192 176.505 190.548C177.568 190.892 178.481 191.396 179.244 192.06C180.018 192.723 180.619 193.534 181.047 194.493C181.474 195.452 181.688 196.539 181.688 197.756C181.688 198.96 181.474 200.041 181.047 201C180.619 201.946 180.018 202.751 179.244 203.415C178.481 204.078 177.568 204.588 176.505 204.945C175.442 205.289 174.269 205.461 172.986 205.461H164.614ZM168.08 193.35V202.143H173.177C173.893 202.143 174.541 202.026 175.118 201.792C175.696 201.559 176.187 201.246 176.592 200.852C176.996 200.447 177.308 199.98 177.528 199.452C177.747 198.911 177.857 198.346 177.857 197.756C177.857 196.342 177.407 195.255 176.505 194.493C175.615 193.731 174.269 193.35 172.466 193.35H168.08Z" fill="white"/> <path d="M203.084 179.71V183.028H192.822V190.806H202.18V194.143H192.822V202.143H203.413V205.461H189.355V179.71H203.084Z" fill="white"/> <path d="M212.85 194.069V190.77H216.749C217.431 190.77 218.055 190.647 218.621 190.401C219.199 190.155 219.69 189.836 220.094 189.442C220.51 189.037 220.834 188.588 221.065 188.097C221.296 187.593 221.412 187.089 221.412 186.585C221.412 185.934 221.29 185.375 221.048 184.908C220.805 184.441 220.47 184.06 220.042 183.765C219.626 183.458 219.135 183.237 218.569 183.101C218.003 182.954 217.396 182.88 216.749 182.88C216.425 182.88 216.015 182.911 215.518 182.972C215.033 183.022 214.507 183.108 213.94 183.23C213.374 183.353 212.791 183.519 212.19 183.728C211.6 183.937 211.04 184.195 210.508 184.502V181.074C211.028 180.816 211.612 180.582 212.259 180.373C212.918 180.164 213.582 179.986 214.253 179.839C214.923 179.691 215.564 179.581 216.177 179.507C216.801 179.421 217.338 179.378 217.789 179.378C218.725 179.378 219.62 179.501 220.476 179.747C221.331 179.992 222.082 180.386 222.729 180.926C223.388 181.455 223.908 182.143 224.289 182.991C224.682 183.839 224.879 184.871 224.879 186.088C224.879 186.874 224.757 187.605 224.515 188.281C224.272 188.957 223.948 189.559 223.544 190.088C223.151 190.616 222.695 191.071 222.174 191.452C221.654 191.82 221.117 192.097 220.562 192.281C221.105 192.465 221.643 192.73 222.174 193.074C222.718 193.405 223.203 193.829 223.631 194.346C224.058 194.849 224.405 195.439 224.671 196.115C224.936 196.791 225.069 197.553 225.069 198.401C225.069 199.642 224.832 200.73 224.359 201.663C223.896 202.585 223.278 203.353 222.504 203.968C221.73 204.582 220.84 205.043 219.834 205.35C218.84 205.645 217.812 205.792 216.749 205.792C216.333 205.792 215.842 205.762 215.275 205.7C214.721 205.651 214.143 205.571 213.542 205.461C212.952 205.338 212.369 205.19 211.791 205.018C211.225 204.846 210.728 204.643 210.3 204.41V200.41C211.236 201.074 212.201 201.553 213.195 201.848C214.189 202.143 215.137 202.29 216.038 202.29C216.639 202.29 217.263 202.235 217.91 202.124C218.569 202.014 219.17 201.811 219.713 201.516C220.256 201.209 220.701 200.791 221.048 200.263C221.406 199.734 221.585 199.052 221.585 198.216C221.585 197.7 221.487 197.197 221.29 196.705C221.094 196.201 220.77 195.759 220.32 195.378C219.869 194.985 219.274 194.671 218.534 194.438C217.795 194.192 216.882 194.069 215.795 194.069H212.85Z" fill="white"/> <path d="M232.147 192.594C232.147 190.813 232.453 189.123 233.065 187.525C233.69 185.928 234.568 184.527 235.7 183.323C236.833 182.106 238.197 181.148 239.791 180.447C241.398 179.734 243.183 179.378 245.148 179.378C247.147 179.378 248.95 179.734 250.556 180.447C252.163 181.148 253.526 182.1 254.647 183.304C255.78 184.508 256.646 185.909 257.247 187.507C257.86 189.104 258.166 190.8 258.166 192.594C258.166 194.327 257.866 195.992 257.265 197.59C256.675 199.175 255.82 200.576 254.699 201.792C253.578 203.009 252.203 203.98 250.574 204.705C248.956 205.43 247.124 205.792 245.078 205.792C243.761 205.792 242.524 205.633 241.369 205.313C240.213 204.981 239.156 204.521 238.197 203.931C237.249 203.341 236.4 202.64 235.648 201.829C234.897 201.006 234.262 200.109 233.742 199.138C233.222 198.155 232.823 197.111 232.545 196.005C232.28 194.899 232.147 193.762 232.147 192.594ZM235.735 192.594C235.735 193.995 235.972 195.298 236.446 196.502C236.92 197.694 237.573 198.733 238.405 199.617C239.248 200.49 240.242 201.172 241.386 201.663C242.542 202.155 243.796 202.401 245.148 202.401C246.5 202.401 247.754 202.155 248.909 201.663C250.065 201.172 251.059 200.49 251.891 199.617C252.735 198.733 253.393 197.694 253.867 196.502C254.341 195.298 254.578 193.995 254.578 192.594C254.578 191.169 254.341 189.86 253.867 188.668C253.393 187.464 252.735 186.425 251.891 185.553C251.059 184.68 250.065 183.998 248.909 183.507C247.754 183.015 246.5 182.77 245.148 182.77C243.796 182.77 242.542 183.015 241.386 183.507C240.242 183.998 239.248 184.68 238.405 185.553C237.573 186.425 236.92 187.464 236.446 188.668C235.972 189.86 235.735 191.169 235.735 192.594Z" fill="white"/> <path d="M286.86 179.71V205.461H283.393V183.515H269.82V205.461H266.353V179.71H286.86Z" fill="white"/> <path d="M344.325 203.544C343.736 203.875 343.41 204.183 342.774 204.465C342.138 204.736 341.462 204.969 340.746 205.166C340.041 205.362 339.278 205.516 338.458 205.627C337.649 205.737 336.776 205.792 335.84 205.792C334.326 205.792 332.951 205.602 331.715 205.221C330.478 204.84 329.374 204.324 328.404 203.673C327.444 203.021 326.607 202.266 325.89 201.405C325.185 200.545 324.601 199.642 324.139 198.696C323.677 197.737 323.33 196.766 323.099 195.783C322.88 194.8 322.77 193.86 322.77 192.963C322.77 191.66 322.92 190.419 323.221 189.24C323.521 188.048 323.949 186.954 324.503 185.959C325.058 184.951 325.728 184.041 326.514 183.23C327.311 182.419 328.201 181.731 329.184 181.166C330.166 180.588 331.235 180.146 332.391 179.839C333.546 179.532 334.765 179.378 336.048 179.378C336.672 179.378 337.302 179.421 337.938 179.507C338.573 179.581 339.226 179.71 339.896 179.894C340.578 180.066 341.283 180.287 342.011 180.558C342.751 180.816 343.245 181.129 344.065 181.498V185.461C343.314 184.994 342.872 184.594 342.167 184.263C341.474 183.919 340.786 183.636 340.105 183.415C339.434 183.194 338.758 183.034 338.076 182.936C337.406 182.825 336.718 182.77 336.014 182.77C334.627 182.77 333.344 183.022 332.165 183.525C330.986 184.017 329.964 184.699 329.097 185.571C328.242 186.444 327.572 187.482 327.086 188.687C326.601 189.891 326.358 191.206 326.358 192.631C326.358 194.069 326.595 195.39 327.069 196.594C327.543 197.786 328.207 198.812 329.062 199.673C329.929 200.533 330.963 201.203 332.165 201.682C333.367 202.161 334.696 202.401 336.152 202.401C337.539 202.401 338.949 202.155 340.382 201.663C341.815 201.172 342.938 200.447 344.325 199.488V203.544Z" fill="white"/> <path d="M373.288 179.71V205.461H369.821V194.691H356.248V205.461H352.781V179.71H356.248V190.687H369.821V179.71H373.288Z" fill="white"/> <path d="M406.038 179.71V205.461H402.571V179.71H406.038ZM389.551 190.548C390.949 190.548 392.168 190.751 393.209 191.157C394.249 191.562 395.11 192.109 395.791 192.797C396.485 193.473 396.999 194.266 397.334 195.175C397.681 196.084 397.854 197.049 397.854 198.069C397.854 199.089 397.675 200.048 397.317 200.945C396.959 201.842 396.433 202.628 395.739 203.304C395.046 203.968 394.185 204.496 393.157 204.889C392.14 205.27 390.972 205.461 389.655 205.461H382.584V179.71H386.051V190.548H389.551ZM386.051 193.866V202.143H390.106C390.903 202.143 391.568 202.026 392.099 201.792C392.631 201.559 393.053 201.258 393.365 200.889C393.688 200.508 393.919 200.084 394.058 199.617C394.197 199.15 394.266 198.683 394.266 198.216C394.266 197.577 394.168 196.994 393.971 196.465C393.786 195.925 393.515 195.464 393.157 195.083C392.798 194.702 392.359 194.407 391.839 194.198C391.331 193.977 390.753 193.866 390.106 193.866H386.051Z" fill="white"/> <path d="M437.089 179.71L427.434 192.134L437.765 205.461H433.57L425.336 194.363L416.998 205.461H412.769L423.204 192.134L413.514 179.71H417.744L425.336 189.953L432.894 179.71H437.089Z" fill="white"/> <path d="M17.9502 236.478L2.57429 256.127H0.910156V230.044H4.3771V249.879L19.7183 230.044H21.4171V255.795H17.9502V236.478Z" fill="white"/> <path d="M51.2203 230.044V255.795H47.7534V244.927H34.1803V255.795H30.7134V230.044H34.1803V240.899H47.7534V230.044H51.2203Z" fill="white"/> <path d="M60.5166 255.795V230.044H67.3449C68.6508 230.044 69.7718 230.235 70.7079 230.616C71.6439 230.997 72.4124 231.494 73.0134 232.109C73.6259 232.723 74.0766 233.43 74.3655 234.228C74.6544 235.015 74.7989 235.814 74.7989 236.625C74.7989 237.964 74.5042 239.083 73.9148 239.98C73.3254 240.864 72.5815 241.583 71.2988 242.136V242.21C72.2002 242.394 72.7486 242.683 73.4651 243.076C74.1932 243.47 74.8057 243.955 75.3026 244.533C75.8111 245.11 76.1982 245.768 76.464 246.505C76.7298 247.242 76.8627 248.047 76.8627 248.92C76.8627 249.706 76.7125 250.511 76.412 251.334C76.1231 252.145 75.6493 252.883 74.9906 253.546C74.3318 254.21 73.4709 254.751 72.4077 255.168C71.356 255.586 70.0733 255.795 68.5594 255.795H60.5166ZM63.9835 233.362V241.067H66.289C68.034 241.067 69.1304 240.735 69.9625 240.072C70.7945 239.396 71.2106 238.357 71.2106 236.957C71.2106 236.477 71.1412 236.023 71.0026 235.593C70.8639 235.15 70.627 234.769 70.2918 234.45C69.9683 234.118 69.5349 233.854 68.9917 233.657C68.4601 233.46 67.7956 233.362 66.9982 233.362H63.9835ZM63.9835 244.404V252.477H68.0913C69.1199 252.477 69.9635 252.354 70.6222 252.109C71.2925 251.863 71.8241 251.549 72.217 251.168C72.6099 250.775 72.8815 250.339 73.0317 249.86C73.1935 249.368 73.2744 248.883 73.2744 248.403C73.2744 247.814 73.1646 247.279 72.9451 246.8C72.737 246.308 72.4077 245.884 71.957 245.528C71.5178 245.172 70.9631 244.895 70.2929 244.698C69.6226 244.502 68.831 244.404 67.918 244.404H63.9835Z" fill="white"/> <path d="M98.1551 230.044V233.362H87.8929V241.141H96.9575V244.477H87.8929V252.477H98.4844V255.795H84.426V230.044H98.1551Z" fill="white"/> <path d="M126.953 253.878C126.363 254.21 125.751 254.517 125.115 254.8C124.48 255.07 123.804 255.304 123.087 255.5C122.382 255.697 121.62 255.85 120.799 255.961C119.99 256.072 119.118 256.127 118.182 256.127C116.668 256.127 115.292 255.936 114.056 255.555C112.819 255.175 111.716 254.658 110.745 254.007C109.786 253.356 108.948 252.6 108.231 251.74C107.526 250.88 106.943 249.976 106.481 249.03C106.018 248.072 105.672 247.101 105.44 246.118C105.221 245.135 105.111 244.195 105.111 243.298C105.111 241.995 105.261 240.754 105.562 239.574C105.862 238.382 106.29 237.288 106.845 236.293C107.399 235.285 108.07 234.376 108.855 233.565C109.653 232.754 110.543 232.066 111.525 231.5C112.507 230.923 113.576 230.48 114.732 230.173C115.888 229.866 117.107 229.712 118.39 229.712C119.014 229.712 119.643 229.755 120.279 229.841C120.915 229.915 121.568 230.044 122.238 230.229C122.92 230.401 123.625 230.622 124.353 230.892C125.092 231.15 125.872 231.464 126.693 231.832V235.795C125.942 235.328 125.214 234.929 124.509 234.597C123.815 234.253 123.128 233.97 122.446 233.749C121.776 233.528 121.1 233.368 120.418 233.27C119.747 233.159 119.06 233.104 118.355 233.104C116.968 233.104 115.685 233.356 114.507 233.86C113.328 234.351 112.305 235.033 111.438 235.906C110.583 236.778 109.913 237.817 109.427 239.021C108.942 240.225 108.699 241.54 108.699 242.966C108.699 244.404 108.936 245.725 109.41 246.929C109.884 248.121 110.548 249.147 111.404 250.007C112.27 250.867 113.305 251.537 114.507 252.016C115.708 252.496 117.037 252.735 118.494 252.735C119.88 252.735 121.29 252.489 122.723 251.998C124.156 251.506 125.566 250.781 126.953 249.823V253.878Z" fill="white"/> <path d="M153.289 230.044V233.02H144.916V255.795H141.432V233.02H133.06V230.044H153.289Z" fill="white"/> <path d="M177.528 236.595L162.152 256.127H160.488V230.044H163.955V250.115L179.296 230.044H180.995V255.795H177.528V236.595Z" fill="white"/> <path d="M210.798 230.044V252.658H214.005V260.514H210.521V255.795H190.291V230.044H193.758V252.658H207.331V230.044H210.798Z" fill="white"/> <path d="M237.793 236.565L222.417 256.127H220.753V230.044H224.22V249.936L239.561 230.044H241.26V255.795H237.793V236.565Z" fill="white"/> <path d="M267.596 236.453L252.22 256.127H250.556V230.044H254.023V249.967L269.364 230.044H271.063V255.795H267.596V236.453ZM258.079 223.504C258.426 225.064 259.333 225.565 260.801 225.565C261.494 225.565 262.043 225.381 262.448 225.012C262.852 224.631 263.147 224.315 263.332 223.504H265.741C265.476 225.089 264.915 226.02 264.06 226.855C263.216 227.679 262.118 228.09 260.766 228.09C259.403 228.09 258.282 227.679 257.403 226.855C256.537 226.02 255.97 225.089 255.705 223.504H258.079Z" fill="white"/> <path d="M306.332 179.562L317.166 205.461H313.612L310.388 197.866H300.091L297.04 205.461H293.487L303.887 179.562H306.332ZM305.066 184.735L301.443 194.548H308.967L305.066 184.735Z" fill="white"/> <defs> <linearGradient id="paint0_linear" x1="107.17" y1="11.767" x2="61.4002" y2="85.507" gradientUnits="userSpaceOnUse"> <stop stop-color="#84C663"/> <stop offset="0.8" stop-color="#4DB56D"/> <stop offset="0.86" stop-color="#44B270"/> <stop offset="0.96" stop-color="#2CA978"/> <stop offset="1" stop-color="#22A57B"/> </linearGradient> </defs> </svg>